<svg width="120" height="120" viewBox="0 0 120 120" fill="none" xmlns="http://www.w3.org/2000/svg">
<g clip-path="url(#clip0_46_2)">
<rect width="120" height="120" rx="20" fill="black"/>
<path d="M77.9863 23.2V34.5H48.8863V52.4H71.1863V63.5H48.8863V93H34.8863V23.2H77.9863Z" fill="white"/>
<path d="M95.1232 35.6977L80.6327 81.1976L71.1853 74.1275L83.0337 26.6504L95.1232 35.6977ZM69.7496 100.35C67.7213 98.8323 66.2497 96.8367 65.3346 94.3632C64.4912 91.8655 64.3886 89.4945 65.0267 87.2501C65.6648 85.0058 66.8341 83.6255 68.5344 83.1092C70.3064 82.5688 72.2065 83.0576 74.2348 84.5755C76.2096 86.0534 77.6188 88.0412 78.4622 90.5388C79.3239 92.9724 79.4356 95.3113 78.7975 97.5557C78.1594 99.8001 76.981 101.212 75.2624 101.793C73.5621 102.309 71.7244 101.828 69.7496 100.35Z" fill="white"/>
</g>
<defs>
<clipPath id="clip0_46_2">
<rect width="120" height="120" rx="20" fill="white"/>
</clipPath>
</defs>
</svg>
